<svg width="64" height="64" viewBox="0 0 64 64" fill="none" xmlns="http://www.w3.org/2000/svg">
<g clip-path="url(#clip0_1670_305)">
<path d="M48 1.5H16C7.99187 1.5 1.5 7.99187 1.5 16V48C1.5 56.0081 7.99187 62.5 16 62.5H48C56.0081 62.5 62.5 56.0081 62.5 48V16C62.5 7.99187 56.0081 1.5 48 1.5Z" fill="#212529"/>
<path d="M48 1.5H16C7.99187 1.5 1.5 7.99187 1.5 16V48C1.5 56.0081 7.99187 62.5 16 62.5H48C56.0081 62.5 62.5 56.0081 62.5 48V16C62.5 7.99187 56.0081 1.5 48 1.5Z" stroke="#212529" stroke-width="1.5"/>
<path fill-rule="evenodd" clip-rule="evenodd" d="M31.5218 10C29.9272 10 28.3582 10.4014 26.9594 11.1673C26.2536 11.5537 25.6028 12.0266 25.0208 12.5729C24.2486 12.8371 23.4976 13.1473 22.7714 13.5002C21.9678 13.5223 21.1672 13.6463 20.389 13.8716C18.8526 14.3166 17.4535 15.1423 16.3213 16.2721C15.189 17.4019 14.3604 18.7994 13.9123 20.3348C13.6871 21.1064 13.5616 21.9002 13.5365 22.6972C13.1762 23.431 12.8595 24.1902 12.5899 24.9712C12.0415 25.5526 11.5664 26.203 11.178 26.9086C10.4052 28.312 10 29.8882 10 31.4904C10 33.0926 10.4052 34.6688 11.178 36.0724C11.564 36.7734 12.0355 37.4202 12.5795 37.9986C12.8515 38.7908 13.1719 39.5606 13.5371 40.3042C13.5638 41.0944 13.689 41.8812 13.9123 42.646C14.3604 44.1814 15.189 45.579 16.3213 46.7088C17.4535 47.8386 18.8526 48.6642 20.389 49.1092C21.1536 49.3306 21.94 49.4542 22.7294 49.4794C23.4756 49.844 24.2476 50.1636 25.0422 50.4344C25.6188 50.9736 26.2624 51.441 26.9596 51.824C28.3608 52.5932 29.9334 52.9966 31.5318 52.9966C33.1302 52.9966 34.7028 52.5932 36.104 51.824C36.8162 51.4328 37.4724 50.9538 38.0582 50.4C38.8192 50.136 39.5592 49.8272 40.2754 49.477C41.0858 49.4548 41.8932 49.329 42.6774 49.1C44.2128 48.6518 45.6104 47.8232 46.7402 46.691C47.87 45.5588 48.6956 44.1596 49.1406 42.6232C49.3698 41.8324 49.494 41.0182 49.513 40.2014C49.8544 39.496 50.1556 38.7676 50.4134 38.019C50.9708 37.43 51.4524 36.7698 51.845 36.053C52.6108 34.6542 53.0122 33.0852 53.0122 31.4904C53.0122 29.8958 52.6108 28.3266 51.845 26.928C51.45 26.2066 50.9648 25.5426 50.403 24.9508C50.1478 24.214 49.8508 23.4968 49.5146 22.802C49.4978 21.9754 49.3732 21.1512 49.1412 20.3508C48.695 18.812 47.867 17.411 46.7342 16.2781C45.6012 15.1452 44.2002 14.3172 42.6614 13.8712C41.8654 13.6404 41.0458 13.5158 40.2238 13.4979C39.5206 13.1564 38.7944 12.855 38.0482 12.5966C37.4596 12.0403 36.8002 11.5593 36.0844 11.1673C34.6856 10.4014 33.1166 10 31.5218 10ZM38.5606 26.4394C39.1464 27.0252 39.1464 27.9748 38.5606 28.5606L30.5606 36.5606C29.9748 37.1464 29.0252 37.1464 28.4394 36.5606L24.4394 32.5606C23.8536 31.9748 23.8536 31.0252 24.4394 30.4394C25.0252 29.8536 25.9748 29.8536 26.5606 30.4394L29.5 33.3786L36.4394 26.4394C37.0252 25.8536 37.9748 25.8536 38.5606 26.4394Z" fill="url(#paint0_linear_1670_305)"/>
</g>
<defs>
<linearGradient id="paint0_linear_1670_305" x1="36.2106" y1="10" x2="46.2846" y2="52.9982" gradientUnits="userSpaceOnUse">
<stop stop-color="#E6F2EE"/>
<stop offset="0.38" stop-color="#FDF0F8"/>
<stop offset="0.595" stop-color="#F0ECF4"/>
</linearGradient>
<clipPath id="clip0_1670_305">
<rect width="64" height="64" fill="white"/>
</clipPath>
</defs>
</svg>
