<svg width="300" height="54" viewBox="0 0 300 54" fill="none" xmlns="http://www.w3.org/2000/svg">
<rect x="0.5" y="0.5" width="299" height="53" rx="11.5" fill="white"/>
<rect x="0.5" y="0.5" width="299" height="53" rx="11.5" stroke="#828282"/>
<path fill-rule="evenodd" clip-rule="evenodd" d="M102.6 27.2273C102.6 26.5182 102.536 25.8364 102.418 25.1819H93V29.0501H98.3818C98.15 30.3001 97.4455 31.3592 96.3864 32.0682V34.5773H99.6182C101.509 32.8364 102.6 30.2728 102.6 27.2273Z" fill="#4285F4"/>
<path fill-rule="evenodd" clip-rule="evenodd" d="M92.9998 36.9999C95.6998 36.9999 97.9635 36.1044 99.618 34.5772L96.3862 32.0681C95.4907 32.6681 94.3453 33.0226 92.9998 33.0226C90.3953 33.0226 88.1907 31.2635 87.4044 28.8999H84.0635V31.4908C85.7089 34.759 89.0907 36.9999 92.9998 36.9999Z" fill="#34A853"/>
<path fill-rule="evenodd" clip-rule="evenodd" d="M87.4045 28.8999C87.2045 28.2999 87.0909 27.659 87.0909 26.9999C87.0909 26.3409 87.2045 25.6999 87.4045 25.0999V22.509H84.0636C83.3864 23.859 83 25.3863 83 26.9999C83 28.6136 83.3864 30.1409 84.0636 31.4909L87.4045 28.8999Z" fill="#FBBC05"/>
<path fill-rule="evenodd" clip-rule="evenodd" d="M92.9998 20.9773C94.468 20.9773 95.7862 21.4818 96.8226 22.4727L99.6907 19.6045C97.9589 17.9909 95.6953 17 92.9998 17C89.0907 17 85.7089 19.2409 84.0635 22.5091L87.4044 25.1C88.1907 22.7364 90.3953 20.9773 92.9998 20.9773Z" fill="#EA4335"/>
<path d="M131.48 27.944C131.48 29.032 131.245 29.9653 130.776 30.744C130.307 31.512 129.656 32.104 128.824 32.52C128.003 32.936 127.064 33.1547 126.008 33.176C124.899 33.176 123.907 32.9253 123.032 32.424C122.168 31.912 121.491 31.208 121 30.312C120.509 29.4053 120.264 28.376 120.264 27.224C120.264 26.072 120.509 25.048 121 24.152C121.491 23.256 122.168 22.5573 123.032 22.056C123.907 21.544 124.899 21.288 126.008 21.288C127.192 21.288 128.2 21.56 129.032 22.104C129.864 22.648 130.483 23.3147 130.888 24.104L129.72 24.664C129.421 24.056 128.952 23.5387 128.312 23.112C127.683 22.6853 126.915 22.472 126.008 22.472C125.155 22.472 124.392 22.6747 123.72 23.08C123.048 23.4853 122.525 24.0453 122.152 24.76C121.789 25.4747 121.608 26.296 121.608 27.224C121.608 28.152 121.789 28.9787 122.152 29.704C122.525 30.4187 123.048 30.9787 123.72 31.384C124.392 31.7893 125.155 31.992 126.008 31.992C126.829 31.96 127.555 31.8 128.184 31.512C128.813 31.2133 129.304 30.7813 129.656 30.216C130.019 29.6507 130.2 28.9573 130.2 28.136H126.216V26.984H131.496L131.48 27.944ZM136.761 31.96C137.198 31.96 137.588 31.8533 137.929 31.64C138.27 31.416 138.532 31.1067 138.713 30.712C138.905 30.3173 139.001 29.8693 139.001 29.368C139.001 28.856 138.905 28.4027 138.713 28.008C138.532 27.6133 138.27 27.3093 137.929 27.096C137.588 26.872 137.198 26.76 136.761 26.76C136.324 26.76 135.934 26.872 135.593 27.096C135.262 27.3093 135.001 27.6133 134.809 28.008C134.628 28.4027 134.537 28.856 134.537 29.368C134.537 29.8693 134.628 30.3173 134.809 30.712C135.001 31.1067 135.262 31.416 135.593 31.64C135.934 31.8533 136.324 31.96 136.761 31.96ZM136.761 25.576C137.454 25.576 138.073 25.7413 138.617 26.072C139.161 26.392 139.582 26.84 139.881 27.416C140.19 27.9813 140.345 28.632 140.345 29.368C140.345 30.0933 140.19 30.744 139.881 31.32C139.582 31.8853 139.161 32.3333 138.617 32.664C138.073 32.984 137.454 33.144 136.761 33.144C136.078 33.144 135.465 32.984 134.921 32.664C134.388 32.344 133.966 31.896 133.657 31.32C133.358 30.7333 133.209 30.0827 133.209 29.368C133.209 28.6427 133.358 27.992 133.657 27.416C133.966 26.84 134.388 26.392 134.921 26.072C135.465 25.7413 136.078 25.576 136.761 25.576ZM145.417 31.96C145.854 31.96 146.244 31.8533 146.585 31.64C146.926 31.416 147.188 31.1067 147.369 30.712C147.561 30.3173 147.657 29.8693 147.657 29.368C147.657 28.856 147.561 28.4027 147.369 28.008C147.188 27.6133 146.926 27.3093 146.585 27.096C146.244 26.872 145.854 26.76 145.417 26.76C144.98 26.76 144.59 26.872 144.249 27.096C143.918 27.3093 143.657 27.6133 143.465 28.008C143.284 28.4027 143.193 28.856 143.193 29.368C143.193 29.8693 143.284 30.3173 143.465 30.712C143.657 31.1067 143.918 31.416 144.249 31.64C144.59 31.8533 144.98 31.96 145.417 31.96ZM145.417 25.576C146.11 25.576 146.729 25.7413 147.273 26.072C147.817 26.392 148.238 26.84 148.537 27.416C148.846 27.9813 149.001 28.632 149.001 29.368C149.001 30.0933 148.846 30.744 148.537 31.32C148.238 31.8853 147.817 32.3333 147.273 32.664C146.729 32.984 146.11 33.144 145.417 33.144C144.734 33.144 144.121 32.984 143.577 32.664C143.044 32.344 142.622 31.896 142.313 31.32C142.014 30.7333 141.865 30.0827 141.865 29.368C141.865 28.6427 142.014 27.992 142.313 27.416C142.622 26.84 143.044 26.392 143.577 26.072C144.121 25.7413 144.734 25.576 145.417 25.576ZM154.105 31.944C154.521 31.944 154.9 31.832 155.241 31.608C155.593 31.3733 155.865 31.0587 156.057 30.664C156.26 30.2587 156.361 29.8213 156.361 29.352C156.361 28.904 156.26 28.4827 156.057 28.088C155.855 27.6827 155.583 27.3627 155.241 27.128C154.9 26.8827 154.521 26.76 154.105 26.76C153.668 26.76 153.279 26.872 152.937 27.096C152.596 27.3093 152.329 27.6187 152.137 28.024C151.945 28.4187 151.849 28.8613 151.849 29.352C151.849 29.864 151.945 30.3173 152.137 30.712C152.329 31.096 152.596 31.4 152.937 31.624C153.279 31.8373 153.668 31.944 154.105 31.944ZM157.705 32.568C157.705 33.2827 157.551 33.9387 157.241 34.536C156.943 35.1333 156.516 35.6027 155.961 35.944C155.407 36.2853 154.761 36.456 154.025 36.456C153.396 36.456 152.815 36.312 152.281 36.024C151.759 35.736 151.311 35.304 150.937 34.728L152.025 34.04C152.281 34.456 152.575 34.76 152.905 34.952C153.247 35.1547 153.62 35.256 154.025 35.256C154.74 35.256 155.305 35 155.721 34.488C156.148 33.9867 156.361 33.3573 156.361 32.6V31.608L156.457 31.656C156.201 32.0933 155.849 32.4507 155.401 32.728C154.953 32.9947 154.505 33.128 154.057 33.128C153.375 33.128 152.761 32.968 152.217 32.648C151.684 32.3173 151.268 31.8693 150.969 31.304C150.671 30.728 150.521 30.0827 150.521 29.368C150.521 28.6427 150.671 27.9973 150.969 27.432C151.268 26.856 151.684 26.4027 152.217 26.072C152.761 25.7413 153.375 25.576 154.057 25.576C154.559 25.576 155.028 25.7093 155.465 25.976C155.903 26.2427 156.239 26.6 156.473 27.048L156.361 27.096V25.576H157.705V32.568ZM161.182 21.752V33.048H159.854V21.752H161.182ZM166.433 33.112C165.74 33.112 165.121 32.952 164.577 32.632C164.044 32.312 163.622 31.8693 163.313 31.304C163.014 30.728 162.865 30.0773 162.865 29.352C162.865 28.6267 163.014 27.9813 163.313 27.416C163.622 26.84 164.044 26.392 164.577 26.072C165.121 25.752 165.74 25.592 166.433 25.592C167.35 25.592 168.044 25.816 168.513 26.264C168.982 26.7013 169.308 27.1333 169.489 27.56L169.505 27.624C169.676 28.0613 169.777 28.4827 169.809 28.888C169.841 29.2933 169.841 29.6187 169.809 29.864V29.928H164.209C164.273 30.312 164.412 30.6587 164.625 30.968C164.838 31.2773 165.1 31.5173 165.409 31.688C165.729 31.8587 166.07 31.944 166.433 31.944C167.03 31.944 167.489 31.832 167.809 31.608C168.14 31.3733 168.385 31.128 168.545 30.872L168.561 30.84L169.617 31.384C169.404 31.8533 169.02 32.2587 168.465 32.6C167.921 32.9413 167.244 33.112 166.433 33.112ZM168.513 28.776C168.47 28.3813 168.369 28.0347 168.209 27.736C168.049 27.4373 167.82 27.2027 167.521 27.032C167.233 26.8507 166.87 26.76 166.433 26.76C165.868 26.76 165.377 26.952 164.961 27.336C164.556 27.7093 164.305 28.1947 164.209 28.792L168.513 28.776ZM187.813 31.352V32.488H175.061V31.352H187.813ZM182.101 28.376V31.816H180.725V28.376H182.101ZM186.261 21.144V25.464H178.005V28.216H176.645V24.36H184.885V22.264H176.613V21.144H186.261ZM186.581 27.656V28.776H176.645V27.656H186.581ZM199.462 21.576V22.712H190.422V21.576H199.462ZM201.782 31.032V32.184H189.046V31.032H201.782ZM200.086 21.576V23.032C200.086 24.2693 200.054 25.384 199.99 26.376C199.936 27.368 199.792 28.5307 199.558 29.864L198.166 29.736C198.411 28.4773 198.56 27.3573 198.614 26.376C198.678 25.384 198.71 24.2693 198.71 23.032V21.576H200.086ZM214.582 20.136V30.392H213.19V20.136H214.582ZM214.998 32.776V33.896H205.51V32.776H214.998ZM206.886 29.352V33.16H205.51V29.352H206.886ZM207.014 21.096C207.707 21.096 208.337 21.2453 208.902 21.544C209.467 21.8427 209.91 22.2587 210.23 22.792C210.55 23.3253 210.71 23.9227 210.71 24.584C210.71 25.256 210.55 25.8533 210.23 26.376C209.91 26.8987 209.467 27.3093 208.902 27.608C208.337 27.9067 207.707 28.056 207.014 28.056C206.321 28.056 205.691 27.9067 205.126 27.608C204.571 27.3093 204.129 26.8987 203.798 26.376C203.478 25.8427 203.318 25.2453 203.318 24.584C203.318 23.9227 203.478 23.3253 203.798 22.792C204.129 22.2587 204.571 21.8427 205.126 21.544C205.691 21.2453 206.321 21.096 207.014 21.096ZM207.014 22.296C206.577 22.296 206.177 22.392 205.814 22.584C205.462 22.776 205.185 23.048 204.982 23.4C204.779 23.752 204.678 24.1467 204.678 24.584C204.678 25.0213 204.779 25.4107 204.982 25.752C205.185 26.0933 205.462 26.36 205.814 26.552C206.177 26.744 206.577 26.84 207.014 26.84C207.462 26.84 207.862 26.744 208.214 26.552C208.566 26.36 208.843 26.0933 209.046 25.752C209.259 25.4107 209.366 25.0213 209.366 24.584C209.366 24.1467 209.259 23.752 209.046 23.4C208.843 23.048 208.561 22.776 208.198 22.584C207.846 22.392 207.451 22.296 207.014 22.296Z" fill="#1F1F1F"/>
</svg>
