<svg width="300" height="54" viewBox="0 0 300 54" fill="none" xmlns="http://www.w3.org/2000/svg">
<rect width="300" height="54" rx="12" fill="#FEE500"/>
<path fill-rule="evenodd" clip-rule="evenodd" d="M98.0001 17.6665C92.4769 17.6665 88 21.1254 88 25.3913C88 28.0444 89.7316 30.3832 92.3684 31.7743L91.2589 35.8271C91.1609 36.1852 91.5705 36.4707 91.885 36.2632L96.7482 33.0535C97.1586 33.0931 97.5757 33.1162 98.0001 33.1162C103.523 33.1162 108 29.6575 108 25.3913C108 21.1254 103.523 17.6665 98.0001 17.6665Z" fill="black"/>
<path d="M131.888 21.448C131.888 23.016 131.707 24.4293 131.344 25.688C130.992 26.936 130.347 28.104 129.408 29.192C128.469 30.28 127.168 31.2453 125.504 32.088L124.56 30.744C126 30.0187 127.131 29.208 127.952 28.312C128.784 27.416 129.365 26.4347 129.696 25.368C130.027 24.2907 130.192 23.0587 130.192 21.672V21.448H131.888ZM131.232 21.448V22.856H125.408V21.448H131.232ZM130.144 26.312L124.896 26.824L124.672 25.304L130.144 24.968V26.312ZM135.616 20.024V34.28H133.84V20.024H135.616ZM137.712 25.608V27.064H135.168V25.608H137.712ZM145.872 21.448C145.872 23.016 145.691 24.4293 145.328 25.688C144.976 26.936 144.331 28.104 143.392 29.192C142.454 30.28 141.152 31.2453 139.488 32.088L138.544 30.744C139.984 30.0187 141.115 29.208 141.936 28.312C142.768 27.416 143.35 26.4347 143.68 25.368C144.011 24.2907 144.176 23.0587 144.176 21.672V21.448H145.872ZM145.216 21.448V22.856H139.392V21.448H145.216ZM144.128 26.312L138.88 26.824L138.656 25.304L144.128 24.968V26.312ZM149.6 20.024V34.28H147.824V20.024H149.6ZM151.696 25.608V27.064H149.152V25.608H151.696ZM159.809 28.056V31.416H158.065V28.056H159.809ZM158.945 20.84C159.958 20.84 160.859 21 161.649 21.32C162.449 21.64 163.073 22.0933 163.521 22.68C163.979 23.256 164.209 23.928 164.209 24.696C164.209 25.464 163.979 26.1413 163.521 26.728C163.073 27.304 162.449 27.752 161.649 28.072C160.859 28.3813 159.958 28.536 158.945 28.536C157.942 28.536 157.041 28.3813 156.241 28.072C155.441 27.752 154.811 27.304 154.353 26.728C153.905 26.1413 153.681 25.464 153.681 24.696C153.681 23.928 153.905 23.256 154.353 22.68C154.811 22.0933 155.441 21.64 156.241 21.32C157.041 21 157.942 20.84 158.945 20.84ZM158.929 22.232C158.246 22.232 157.638 22.3333 157.105 22.536C156.571 22.7387 156.155 23.0267 155.857 23.4C155.558 23.7627 155.409 24.1893 155.409 24.68C155.409 25.1813 155.558 25.6187 155.857 25.992C156.155 26.3653 156.571 26.6533 157.105 26.856C157.638 27.048 158.246 27.144 158.929 27.144C159.622 27.144 160.235 27.048 160.769 26.856C161.313 26.6533 161.734 26.3653 162.033 25.992C162.331 25.6187 162.481 25.1813 162.481 24.68C162.481 24.1893 162.331 23.7627 162.033 23.4C161.734 23.0267 161.313 22.7387 160.769 22.536C160.235 22.3333 159.622 22.232 158.929 22.232ZM165.409 31.128V32.552H152.513V31.128H165.409ZM183.081 31.208V32.632H170.185V31.208H183.081ZM177.481 28.376V31.784H175.737V28.376H177.481ZM181.577 21.016V25.592H173.449V28.152H171.721V24.2H179.833V22.408H171.689V21.016H181.577ZM181.897 27.464V28.872H171.721V27.464H181.897ZM194.601 21.416V22.824H185.513V21.416H194.601ZM197.049 30.904V32.344H184.169V30.904H197.049ZM195.401 21.416V23.016C195.401 24.3067 195.369 25.448 195.305 26.44C195.252 27.4213 195.113 28.5733 194.889 29.896L193.129 29.736C193.364 28.4987 193.508 27.3893 193.561 26.408C193.625 25.4267 193.657 24.296 193.657 23.016V21.416H195.401ZM209.913 20.056V30.344H208.153V20.056H209.913ZM210.297 32.6V34.008H200.569V32.6H210.297ZM202.313 29.32V33.144H200.569V29.32H202.313ZM202.217 20.984C202.921 20.984 203.561 21.1387 204.137 21.448C204.724 21.7467 205.183 22.1733 205.513 22.728C205.844 23.272 206.009 23.88 206.009 24.552C206.009 25.2347 205.844 25.848 205.513 26.392C205.183 26.936 204.724 27.3627 204.137 27.672C203.561 27.9813 202.921 28.136 202.217 28.136C201.503 28.136 200.852 27.9813 200.265 27.672C199.689 27.3627 199.231 26.936 198.889 26.392C198.559 25.848 198.393 25.2347 198.393 24.552C198.393 23.88 198.559 23.272 198.889 22.728C199.231 22.1733 199.689 21.7467 200.265 21.448C200.852 21.1387 201.503 20.984 202.217 20.984ZM202.201 22.504C201.807 22.504 201.449 22.5893 201.129 22.76C200.809 22.9307 200.559 23.1707 200.377 23.48C200.196 23.7893 200.105 24.152 200.105 24.568C200.105 24.9733 200.196 25.3307 200.377 25.64C200.559 25.9387 200.809 26.1733 201.129 26.344C201.449 26.5147 201.807 26.6 202.201 26.6C202.596 26.6 202.953 26.5147 203.273 26.344C203.593 26.1733 203.844 25.9387 204.025 25.64C204.207 25.3307 204.297 24.9733 204.297 24.568C204.297 24.152 204.207 23.7893 204.025 23.48C203.844 23.1707 203.593 22.9307 203.273 22.76C202.953 22.5893 202.596 22.504 202.201 22.504Z" fill="black" fill-opacity="0.85"/>
</svg>
