<svg width="28" height="28" viewBox="0 0 28 28" fill="none" xmlns="http://www.w3.org/2000/svg">
<path d="M5.83301 16.4019C5.83301 15.2236 5.83301 14.6356 6.09201 14.1328C6.34984 13.6311 6.82934 13.2881 7.78718 12.6044L12.644 9.13476C13.2973 8.66809 13.6263 8.43359 13.9997 8.43359C14.373 8.43359 14.7008 8.66693 15.3553 9.13476L20.2122 12.6033C21.17 13.2881 21.6495 13.6299 21.9073 14.1328C22.1663 14.6344 22.1663 15.2236 22.1663 16.4008V22.1664C22.1663 23.2666 22.1663 23.8161 21.8245 24.1579C21.4827 24.4998 20.9332 24.4998 19.833 24.4998H8.16634C7.06617 24.4998 6.51667 24.4998 6.17484 24.1579C5.83301 23.8161 5.83301 23.2666 5.83301 22.1664V16.4019Z" fill="black" fill-opacity="0.25"/>
<path d="M3.5 14.4514C3.5 14.7617 3.5 14.918 3.598 14.9659C3.696 15.0137 3.81967 14.9192 4.06467 14.7267L12.5673 8.11403C13.2557 7.57853 13.5998 7.31136 14 7.31136C14.4002 7.31136 14.7443 7.57969 15.4327 8.11403L23.9353 14.7267C24.1803 14.918 24.304 15.0137 24.402 14.9659C24.5 14.918 24.5 14.7617 24.5 14.4514V13.9742C24.5 13.4142 24.5 13.1342 24.381 12.8915C24.2632 12.6489 24.0415 12.4762 23.5993 12.1332L15.4327 5.78069C14.7443 5.24519 14.4002 4.97803 14 4.97803C13.5998 4.97803 13.2557 5.24636 12.5673 5.78069L4.40067 12.1332C3.9585 12.4762 3.73683 12.6489 3.619 12.8915C3.5 13.1342 3.5 13.4142 3.5 13.9742V14.4514ZM14.5833 17.4999H13.4167C12.7978 17.4999 12.2043 17.7457 11.7668 18.1833C11.3292 18.6209 11.0833 19.2144 11.0833 19.8332V24.3249C11.0833 24.4217 11.1615 24.4999 11.2583 24.4999H16.7417C16.7881 24.4999 16.8326 24.4814 16.8654 24.4486C16.8982 24.4158 16.9167 24.3713 16.9167 24.3249V19.8332C16.9167 19.2144 16.6708 18.6209 16.2332 18.1833C15.7957 17.7457 15.2022 17.4999 14.5833 17.4999Z" fill="black"/>
<path d="M20.417 5.8335H19.2503C18.9282 5.8335 18.667 6.09466 18.667 6.41683V9.91683C18.667 10.239 18.9282 10.5002 19.2503 10.5002H20.417C20.7392 10.5002 21.0003 10.239 21.0003 9.91683V6.41683C21.0003 6.09466 20.7392 5.8335 20.417 5.8335Z" fill="black"/>
</svg>
