<svg width="28" height="28" viewBox="0 0 28 28" fill="none" xmlns="http://www.w3.org/2000/svg">
<path fill-rule="evenodd" clip-rule="evenodd" d="M14.0007 22.1663C15.0731 22.1663 16.1351 21.9551 17.1259 21.5447C18.1167 21.1343 19.017 20.5327 19.7754 19.7744C20.5337 19.016 21.1353 18.1158 21.5457 17.1249C21.9561 16.1341 22.1673 15.0721 22.1673 13.9997C22.1673 12.9272 21.9561 11.8653 21.5457 10.8744C21.1353 9.8836 20.5337 8.98331 19.7754 8.22497C19.017 7.46662 18.1167 6.86507 17.1259 6.45466C16.1351 6.04424 15.0731 5.83301 14.0007 5.83301C11.8347 5.83301 9.75749 6.69342 8.22595 8.22497C6.6944 9.75652 5.83398 11.8337 5.83398 13.9997C5.83398 16.1656 6.6944 18.2428 8.22595 19.7744C9.75749 21.3059 11.8347 22.1663 14.0007 22.1663ZM11.7688 8.60968C12.4764 8.31683 13.2348 8.16618 14.0007 8.16634C14.1554 8.16634 14.3037 8.10488 14.4131 7.99549C14.5225 7.88609 14.584 7.73772 14.584 7.58301C14.584 7.4283 14.5225 7.27993 14.4131 7.17053C14.3037 7.06113 14.1554 6.99967 14.0007 6.99967C12.1441 6.99967 10.3637 7.73717 9.0509 9.04993C7.73815 10.3627 7.00065 12.1432 7.00065 13.9997C7.00065 14.1544 7.06211 14.3028 7.17151 14.4122C7.2809 14.5216 7.42928 14.583 7.58398 14.583C7.73869 14.583 7.88707 14.5216 7.99646 14.4122C8.10586 14.3028 8.16732 14.1544 8.16732 13.9997C8.16722 12.8458 8.50934 11.7178 9.15042 10.7583C9.79149 9.79891 10.7027 9.05116 11.7688 8.60968Z" fill="black" fill-opacity="0.25"/>
<path d="M23.9173 23.9163L19.834 19.833" stroke="black" stroke-width="2" stroke-linecap="round"/>
<path d="M12.8337 22.7498C18.3105 22.7498 22.7503 18.31 22.7503 12.8332C22.7503 7.35635 18.3105 2.9165 12.8337 2.9165C7.35684 2.9165 2.91699 7.35635 2.91699 12.8332C2.91699 18.31 7.35684 22.7498 12.8337 22.7498Z" stroke="black" stroke-width="2"/>
</svg>
